<svg xmlns="http://www.w3.org/2000/svg" version="1.1" xmlns:xlink="http://www.w3.org/1999/xlink" xmlns:svgjs="http://svgjs.dev/svgjs" width="1000" height="176" viewBox="0 0 1000 176"><g transform="matrix(1,0,0,1,-0.6060501787179078,0.5455572463304179)"><svg viewBox="0 0 396 70" data-background-color="#ffffff" preserveAspectRatio="xMidYMid meet" height="176" width="1000" xmlns="http://www.w3.org/2000/svg" xmlns:xlink="http://www.w3.org/1999/xlink"><g id="tight-bounds" transform="matrix(1,0,0,1,0.2399959187516174,-0.21698299569959545)"><svg viewBox="0 0 395.52 70.43396599139919" height="70.43396599139919" width="395.52"><g><svg viewBox="0 0 487.14384501182207 86.75028573139693" height="70.43396599139919" width="395.52"><g transform="matrix(1,0,0,1,91.62384501182207,11.98936655187903)"><svg viewBox="0 0 395.52 62.77155262763887" height="62.77155262763887" width="395.52"><g id="textblocktransform"><svg viewBox="0 0 395.52 62.77155262763887" height="62.77155262763887" width="395.52" id="textblock"><g><svg viewBox="0 0 395.52 62.77155262763887" height="62.77155262763887" width="395.52"><g transform="matrix(1,0,0,1,0,0)"><svg width="395.52" viewBox="2 -40 334.2099914550781 53" height="62.77155262763887" data-palette-color="#ffffff"><path d="M2-1.25Q2.95-0.95 3.75-0.95L3.75-0.95Q4.7-0.95 5.23-1.48 5.75-2 5.75-3L5.75-3 5.75-34Q5.75-35 5.23-35.52 4.7-36.05 3.75-36.05L3.75-36.05Q2.95-36.05 2-35.75L2-35.75 2-37 9.55-37 9.5-3Q9.5-2 10.03-1.48 10.55-0.95 11.5-0.95L11.5-0.95Q12.3-0.95 13.25-1.25L13.25-1.25 13.25 0 2 0 2-1.25ZM12-15.8Q12.5-15.75 13.45-15.75L13.45-15.75Q18.05-15.75 20.45-18.43 22.85-21.1 22.85-25.2L22.85-25.2Q22.85-27.8 21.65-30.43 20.45-33.05 18.15-34.77 15.85-36.5 12.7-36.5L12.7-36.5Q11.55-36.5 10.95-36.45 10.35-36.4 9.55-36.1L9.55-36.1 9.55-37 13.55-37Q16.95-37 20.08-35.7 23.2-34.4 25.2-31.8 27.2-29.2 27.2-25.5L27.2-25.5Q27.2-22.65 25.5-20.18 23.8-17.7 20.9-16.25 18-14.8 14.7-14.8L14.7-14.8Q13.1-14.8 12-15.05L12-15.05 12-15.8ZM43.1-20.15Q43.1-19.55 42.9-18.8 42.7-18.05 42.65-17.9L42.65-17.9Q42.25-16.6 42.25-16.15L42.25-16.15Q42.25-15.15 43.7-15.15L43.7-15.15 43.7-14.65Q41.65-14.65 40.77-15.7 39.9-16.75 39.9-18.4L39.9-18.4Q39.9-19.2 40.05-19.95L40.05-19.95Q40.35-21.4 40.35-22.2L40.35-22.2Q40.35-23.05 40.02-23.38 39.7-23.7 39-23.7L39-23.7Q37.55-23.7 36.75-20.63 35.95-17.55 35.95-13.45L35.95-13.45 35.95-3Q35.95-1.7 36.17-1.1 36.4-0.5 37.2-0.5L37.2-0.5Q37.6-0.5 38.45-0.75L38.45-0.75 38.45 0 30.2 0 30.2-0.75Q31.05-0.5 31.45-0.5L31.45-0.5Q32.35-0.5 32.6-1.13 32.85-1.75 32.85-3L32.85-3 32.85-20.8Q32.1-20.55 31.25-20.55L31.25-20.55Q30.9-20.55 30.2-20.65L30.2-20.65 30.2-22 30.65-22Q30.65-21.65 31.02-21.4 31.4-21.15 31.9-21.15L31.9-21.15Q32.65-21.15 33.2-21.7 33.75-22.25 34.5-23.35L34.5-23.35 35-23.35 35.05-19.3 35.55-19.3Q36.15-21.9 37.22-23.13 38.3-24.35 39.5-24.35L39.5-24.35Q41.25-24.35 42.17-23.05 43.1-21.75 43.1-20.15L43.1-20.15ZM56.15 0.5Q50.85 0.5 48.52-2.88 46.2-6.25 46.2-11.95L46.2-11.95Q46.2-17.2 48.55-20.78 50.9-24.35 56.15-24.35L56.15-24.35Q61.4-24.35 63.77-20.78 66.15-17.2 66.15-11.95L66.15-11.95Q66.15-6.25 63.8-2.88 61.45 0.5 56.15 0.5L56.15 0.5ZM56.15-0.1Q59.55-0.1 61.1-3.38 62.65-6.65 62.65-11.95L62.65-11.95Q62.65-16.9 61.05-20.33 59.45-23.75 56.15-23.75L56.15-23.75Q52.85-23.75 51.27-20.33 49.7-16.9 49.7-11.95L49.7-11.95Q49.7-6.65 51.25-3.38 52.8-0.1 56.15-0.1L56.15-0.1ZM79.39 0.5Q74.74 0.5 72.69-3.28 70.64-7.05 70.64-12.9L70.64-12.9Q70.64-16 71.64-18.6 72.64-21.2 74.62-22.78 76.59-24.35 79.44-24.35L79.44-24.35Q81.84-24.35 83.59-22.95 85.34-21.55 86.39-19.3L86.39-19.3 87.19-19.3 87.24-32.35 87.24-37.4Q86.49-37.15 85.64-37.15L85.64-37.15Q85.29-37.15 84.59-37.25L84.59-37.25 84.59-38.6 85.04-38.6Q85.04-38.25 85.42-38 85.79-37.75 86.29-37.75L86.29-37.75Q87.04-37.75 87.82-38.43 88.59-39.1 89.24-40L89.24-40 89.94-40 89.94-1.95Q90.04-0.5 91.09-0.5L91.09-0.5Q91.69-0.5 92.39-0.75L92.39-0.75 92.39 0 88.14 0 86.99-3.65 86.09-3.65Q84.04 0.5 79.39 0.5L79.39 0.5ZM80.29-0.4Q83.89-0.4 85.24-3.68 86.59-6.95 86.59-12.1L86.59-12.1Q86.59-14.5 85.92-17.2 85.24-19.9 83.79-21.83 82.34-23.75 80.19-23.75L80.19-23.75Q77.09-23.75 75.62-20.4 74.14-17.05 74.14-12.15L74.14-12.15Q74.14-7.15 75.59-3.78 77.04-0.4 80.29-0.4L80.29-0.4ZM103.69 0.5Q101.84 0.5 100.24-0.48 98.64-1.45 97.72-3.25 96.79-5.05 96.79-7.5L96.79-7.5 96.74-21.05 95.99-21Q95.69-21 94.89-21.1L94.89-21.1 94.89-22.45 95.34-22.45Q95.34-22.1 95.72-21.85 96.09-21.6 96.59-21.6L96.59-21.6Q97.29-21.6 97.84-22.15 98.39-22.7 99.19-23.85L99.19-23.85 100.09-23.85 100.09-23.45 100.04-6.9Q100.04-3.3 100.99-1.73 101.94-0.15 104.14-0.15L104.14-0.15Q106.39-0.15 107.99-1.63 109.59-3.1 110.37-5.35 111.14-7.6 111.14-9.95L111.14-9.95 111.14-21.05 110.39-21Q110.09-21 109.29-21.1L109.29-21.1 109.29-22.45 109.74-22.45Q109.74-22.1 110.12-21.85 110.49-21.6 110.99-21.6L110.99-21.6Q111.69-21.6 112.24-22.15 112.79-22.7 113.59-23.85L113.59-23.85 114.49-23.85 114.49-3Q114.49-1.7 114.72-1.1 114.94-0.5 115.74-0.5L115.74-0.5Q116.14-0.5 116.99-0.75L116.99-0.75 116.99 0 111.54 0 111.54-4.95 111.04-4.95Q109.89-2.6 108.04-1.05 106.19 0.5 103.69 0.5L103.69 0.5ZM130.59 0.5Q126.89 0.5 124.51-1.25 122.14-3 121.06-5.83 119.99-8.65 119.99-11.95L119.99-11.95Q119.99-15.15 121.09-17.98 122.19-20.8 124.41-22.58 126.64-24.35 129.74-24.35L129.74-24.35Q132.59-24.35 135.06-23.05 137.54-21.75 137.89-19.75L137.89-19.75Q137.99-19.05 137.99-18.8L137.99-18.8Q137.99-17.7 137.44-17.03 136.89-16.35 135.89-16.35L135.89-16.35Q134.14-16.35 134.14-17.45L134.14-17.45Q134.14-17.9 134.39-18.75L134.39-18.75Q134.69-19.75 134.69-20.4L134.69-20.4Q134.69-21.4 133.94-22.18 133.19-22.95 132.14-23.35 131.09-23.75 130.24-23.75L130.24-23.75Q127.09-23.75 125.29-20.63 123.49-17.5 123.49-11.5L123.49-11.5Q123.49-6.65 125.26-3.55 127.04-0.45 130.74-0.45L130.74-0.45Q133.29-0.45 134.94-2 136.59-3.55 137.14-5.8L137.14-5.8 138.24-5.8Q137.54-3.2 135.44-1.35 133.34 0.5 130.59 0.5L130.59 0.5ZM146.44 0.5Q144.59 0.5 144.06-0.93 143.54-2.35 143.54-5.1L143.54-5.1 143.54-7.5 143.54-22.65 140.24-22.65 140.24-23.4 143.54-23.4 143.54-28.75Q144.59-28.75 145.11-29.45 145.64-30.15 145.64-30.9L145.64-30.9 146.69-30.9 146.64-23.4 150.74-23.4 150.74-22.65 146.64-22.65 146.59-5.05Q146.59-3.05 146.96-2.18 147.34-1.3 148.19-1.3L148.19-1.3Q149.19-1.3 149.84-2.2 150.49-3.1 150.81-4.23 151.14-5.35 151.14-6L151.14-6 151.64-6Q151.64-4.6 150.99-3.08 150.34-1.55 149.16-0.53 147.99 0.5 146.44 0.5L146.44 0.5ZM154.63-1.25Q155.58-0.95 156.38-0.95L156.38-0.95Q157.33-0.95 157.86-1.48 158.38-2 158.38-3L158.38-3 158.38-34Q158.38-35 157.86-35.52 157.33-36.05 156.38-36.05L156.38-36.05Q155.58-36.05 154.63-35.75L154.63-35.75 154.63-37 162.18-37 162.13-3Q162.13-2 162.66-1.48 163.18-0.95 164.13-0.95L164.13-0.95Q164.93-0.95 165.88-1.25L165.88-1.25 165.88 0 154.63 0 154.63-1.25ZM164.63-15.8Q165.13-15.75 166.08-15.75L166.08-15.75Q170.68-15.75 173.08-18.43 175.48-21.1 175.48-25.2L175.48-25.2Q175.48-27.8 174.28-30.43 173.08-33.05 170.78-34.77 168.48-36.5 165.33-36.5L165.33-36.5Q164.18-36.5 163.58-36.45 162.98-36.4 162.18-36.1L162.18-36.1 162.18-37 166.18-37Q169.58-37 172.71-35.7 175.83-34.4 177.83-31.8 179.83-29.2 179.83-25.5L179.83-25.5Q179.83-22.65 178.13-20.18 176.43-17.7 173.53-16.25 170.63-14.8 167.33-14.8L167.33-14.8Q165.73-14.8 164.63-15.05L164.63-15.05 164.63-15.8ZM195.73-20.15Q195.73-19.55 195.53-18.8 195.33-18.05 195.28-17.9L195.28-17.9Q194.88-16.6 194.88-16.15L194.88-16.15Q194.88-15.15 196.33-15.15L196.33-15.15 196.33-14.65Q194.28-14.65 193.41-15.7 192.53-16.75 192.53-18.4L192.53-18.4Q192.53-19.2 192.68-19.95L192.68-19.95Q192.98-21.4 192.98-22.2L192.98-22.2Q192.98-23.05 192.66-23.38 192.33-23.7 191.63-23.7L191.63-23.7Q190.18-23.7 189.38-20.63 188.58-17.55 188.58-13.45L188.58-13.45 188.58-3Q188.58-1.7 188.81-1.1 189.03-0.5 189.83-0.5L189.83-0.5Q190.23-0.5 191.08-0.75L191.08-0.75 191.08 0 182.83 0 182.83-0.75Q183.68-0.5 184.08-0.5L184.08-0.5Q184.98-0.5 185.23-1.13 185.48-1.75 185.48-3L185.48-3 185.48-20.8Q184.73-20.55 183.88-20.55L183.88-20.55Q183.53-20.55 182.83-20.65L182.83-20.65 182.83-22 183.28-22Q183.28-21.65 183.66-21.4 184.03-21.15 184.53-21.15L184.53-21.15Q185.28-21.15 185.83-21.7 186.38-22.25 187.13-23.35L187.13-23.35 187.63-23.35 187.68-19.3 188.18-19.3Q188.78-21.9 189.86-23.13 190.93-24.35 192.13-24.35L192.13-24.35Q193.88-24.35 194.81-23.05 195.73-21.75 195.73-20.15L195.73-20.15ZM208.78 0.5Q203.48 0.5 201.15-2.88 198.83-6.25 198.83-11.95L198.83-11.95Q198.83-17.2 201.18-20.78 203.53-24.35 208.78-24.35L208.78-24.35Q214.03-24.35 216.4-20.78 218.78-17.2 218.78-11.95L218.78-11.95Q218.78-6.25 216.43-2.88 214.08 0.5 208.78 0.5L208.78 0.5ZM208.78-0.1Q212.18-0.1 213.73-3.38 215.28-6.65 215.28-11.95L215.28-11.95Q215.28-16.9 213.68-20.33 212.08-23.75 208.78-23.75L208.78-23.75Q205.48-23.75 203.9-20.33 202.33-16.9 202.33-11.95L202.33-11.95Q202.33-6.65 203.88-3.38 205.43-0.1 208.78-0.1L208.78-0.1ZM256.58-3.05Q256.58-1.8 256.83-1.18 257.08-0.55 257.98-0.55L257.98-0.55Q258.38-0.55 259.23-0.8L259.23-0.8 259.23-0.05 250.73-0.05 250.73-0.8Q251.58-0.55 251.98-0.55L251.98-0.55Q252.78-0.55 253-1.15 253.23-1.75 253.23-3.05L253.23-3.05 253.23-17.05Q253.23-20.45 251.73-22.13 250.23-23.8 247.88-23.8L247.88-23.8Q246.33-23.8 245.05-22.7 243.78-21.6 243.05-20 242.33-18.4 242.33-17.05L242.33-17.05 242.38-3Q242.38-1.75 242.63-1.13 242.88-0.5 243.78-0.5L243.78-0.5Q244.18-0.5 245.03-0.75L245.03-0.75 245.03 0 236.83 0 236.83-0.75Q237.68-0.5 238.08-0.5L238.08-0.5Q238.88-0.5 239.1-1.1 239.33-1.7 239.33-3L239.33-3 239.33-17Q239.33-20.4 237.93-22.08 236.53-23.75 234.18-23.75L234.18-23.75Q231.88-23.75 230.55-22 229.23-20.25 228.68-17.55L228.68-17.55 228.68-3Q228.68-1.7 228.9-1.1 229.13-0.5 229.93-0.5L229.93-0.5Q230.33-0.5 231.18-0.75L231.18-0.75 231.18 0 222.68 0 222.68-0.75Q223.53-0.5 223.93-0.5L223.93-0.5Q224.78-0.5 225.05-1.15 225.33-1.8 225.33-3.05L225.33-3.05 225.33-20.95Q224.38-20.55 223.28-20.55L223.28-20.55Q222.98-20.55 222.28-20.65L222.28-20.65 222.28-22 222.73-22Q222.73-21.65 223.1-21.4 223.48-21.15 223.98-21.15L223.98-21.15Q224.68-21.15 225.23-21.7 225.78-22.25 226.58-23.4L226.58-23.4 227.48-23.4 227.48-19.3 228.33-19.3Q230.33-24.4 234.63-24.4L234.63-24.4Q236.63-24.4 238.43-23.38 240.23-22.35 241.18-20.5L241.18-20.5Q241.53-19.8 241.53-19.3L241.53-19.3 242.03-19.3Q242.33-20.35 243.2-21.55 244.08-22.75 245.4-23.6 246.73-24.45 248.33-24.45L248.33-24.45Q250.23-24.45 252.15-23.48 254.08-22.5 255.33-20.68 256.58-18.85 256.58-16.45L256.58-16.45 256.58-3.05ZM261.72 12.25Q262.57 12.5 262.97 12.5L262.97 12.5Q263.87 12.5 264.12 11.88 264.37 11.25 264.37 10L264.37 10 264.37-20.75Q263.62-20.5 262.77-20.5L262.77-20.5Q262.42-20.5 261.72-20.6L261.72-20.6 261.72-21.95 262.17-21.95Q262.17-21.6 262.55-21.35 262.92-21.1 263.42-21.1L263.42-21.1Q264.12-21.1 264.67-21.65 265.22-22.2 266.02-23.35L266.02-23.35 267.52-23.35 267.52-20.2 268.42-20.2Q270.47-24.35 275.12-24.35L275.12-24.35Q279.77-24.35 281.82-20.58 283.87-16.8 283.87-10.95L283.87-10.95Q283.87-7.85 282.87-5.25 281.87-2.65 279.9-1.07 277.92 0.5 275.07 0.5L275.07 0.5Q272.67 0.5 270.92-0.9 269.17-2.3 268.12-4.55L268.12-4.55 267.32-4.55 267.27 8.5 267.27 10Q267.27 11.3 267.5 11.9 267.72 12.5 268.52 12.5L268.52 12.5Q268.92 12.5 269.77 12.25L269.77 12.25 269.77 13 261.72 13 261.72 12.25ZM267.92-11.75Q267.92-9.35 268.6-6.65 269.27-3.95 270.72-2.02 272.17-0.1 274.32-0.1L274.32-0.1Q277.42-0.1 278.9-3.45 280.37-6.8 280.37-11.7L280.37-11.7Q280.37-16.7 278.92-20.08 277.47-23.45 274.22-23.45L274.22-23.45Q270.62-23.45 269.27-20.18 267.92-16.9 267.92-11.75L267.92-11.75ZM292.57 0.5Q290.72 0.5 290.19-0.93 289.67-2.35 289.67-5.1L289.67-5.1 289.67-7.5 289.67-22.65 286.37-22.65 286.37-23.4 289.67-23.4 289.67-28.75Q290.72-28.75 291.25-29.45 291.77-30.15 291.77-30.9L291.77-30.9 292.82-30.9 292.77-23.4 296.87-23.4 296.87-22.65 292.77-22.65 292.72-5.05Q292.72-3.05 293.1-2.18 293.47-1.3 294.32-1.3L294.32-1.3Q295.32-1.3 295.97-2.2 296.62-3.1 296.94-4.23 297.27-5.35 297.27-6L297.27-6 297.77-6Q297.77-4.6 297.12-3.08 296.47-1.55 295.3-0.53 294.12 0.5 292.57 0.5L292.57 0.5ZM310.22 0.5Q305.47 0.5 303.12-2.68 300.77-5.85 300.77-11.95L300.77-11.95Q300.77-15.15 301.77-17.98 302.77-20.8 304.89-22.58 307.02-24.35 310.12-24.35L310.12-24.35Q315.17-24.35 317.32-21.28 319.47-18.2 319.47-13.9L319.47-13.9Q319.47-13.15 319.37-11.95L319.37-11.95 319.32-11.5 304.27-11.5Q304.47-0.3 310.52-0.3L310.52-0.3Q313.22-0.3 314.52-1.95 315.82-3.6 315.82-5.7L315.82-5.7Q315.82-6.55 315.39-6.95 314.97-7.35 314.32-7.35L314.32-7.35Q313.82-7.35 313.44-7.08 313.07-6.8 313.07-6.4L313.07-6.4 312.62-6.4 312.62-7.75 318.97-7.75Q319.12-5.85 318.04-3.95 316.97-2.05 314.92-0.8 312.87 0.45 310.22 0.5L310.22 0.5ZM314.67-12.25Q315.57-12.25 315.74-12.43 315.92-12.6 315.97-13.3L315.97-13.3Q316.02-13.85 316.02-14.95L316.02-14.95Q316.02-18.75 314.62-21.25 313.22-23.75 309.92-23.75L309.92-23.75Q306.72-23.75 305.52-20.6 304.32-17.45 304.27-12.25L304.27-12.25 314.67-12.25ZM335.61-20.15Q335.61-19.55 335.41-18.8 335.21-18.05 335.16-17.9L335.16-17.9Q334.76-16.6 334.76-16.15L334.76-16.15Q334.76-15.15 336.21-15.15L336.21-15.15 336.21-14.65Q334.16-14.65 333.29-15.7 332.41-16.75 332.41-18.4L332.41-18.4Q332.41-19.2 332.56-19.95L332.56-19.95Q332.86-21.4 332.86-22.2L332.86-22.2Q332.86-23.05 332.54-23.38 332.21-23.7 331.51-23.7L331.51-23.7Q330.06-23.7 329.26-20.63 328.46-17.55 328.46-13.45L328.46-13.45 328.46-3Q328.46-1.7 328.69-1.1 328.91-0.5 329.71-0.5L329.71-0.5Q330.11-0.5 330.96-0.75L330.96-0.75 330.96 0 322.71 0 322.71-0.75Q323.56-0.5 323.96-0.5L323.96-0.5Q324.86-0.5 325.11-1.13 325.36-1.75 325.36-3L325.36-3 325.36-20.8Q324.61-20.55 323.76-20.55L323.76-20.55Q323.41-20.55 322.71-20.65L322.71-20.65 322.71-22 323.16-22Q323.16-21.65 323.54-21.4 323.91-21.15 324.41-21.15L324.41-21.15Q325.16-21.15 325.71-21.7 326.26-22.25 327.01-23.35L327.01-23.35 327.51-23.35 327.56-19.3 328.06-19.3Q328.66-21.9 329.74-23.13 330.81-24.35 332.01-24.35L332.01-24.35Q333.76-24.35 334.69-23.05 335.61-21.75 335.61-20.15L335.61-20.15Z" opacity="1" transform="matrix(1,0,0,1,0,0)" fill="#ffffff" class="undefined-text-0" data-fill-palette-color="primary" id="text-0"></path></svg></g></svg></g></svg></g></svg></g><g><svg viewBox="0 0 76.8049879536996 86.75028573139693" height="86.75028573139693" width="76.8049879536996"><g><svg xmlns="http://www.w3.org/2000/svg" data-name="Glyph Icon" viewBox="7.210000038146973 4 49.58000183105469 56" x="0" y="0" height="86.75028573139693" width="76.8049879536996" class="icon-icon-0" data-fill-palette-color="accent" id="icon-0"><path d="M49.13 20.84l-16-9.26V4L55.7 17.05ZM32 50.52L16 41.26V22.74l16-9.26 16 9.26V41.26ZM30.91 11.58l-16 9.26L8.3 17.05 30.91 4ZM13.77 22.74V41.26L7.21 45.05V19Zm1.1 20.42l16 9.26V60L8.3 47Zm18.22 9.26l16-9.26L55.7 47 33.09 60ZM50.23 41.26V22.74L56.79 19v26.1Z" fill="#ffdc00" data-fill-palette-color="accent"></path></svg></g></svg></g></svg></g><defs></defs></svg><rect width="395.52" height="70.43396599139919" fill="none" stroke="none" visibility="hidden"></rect></g></svg></g></svg>